<?xml version="1.0" encoding="UTF-8" standalone="no"?>
<!-- Created with Inkscape (http://www.inkscape.org/) -->

<svg
   version="1.1"
   id="svg1"
   width="10189.299"
   height="2068.9775"
   viewBox="0 0 10189.299 2068.9775"
   sodipodi:docname="logo.svg"
   inkscape:version="1.3 (0e150ed6c4, 2023-07-21)"
   xmlns:inkscape="http://www.inkscape.org/namespaces/inkscape"
   xmlns:sodipodi="http://sodipodi.sourceforge.net/DTD/sodipodi-0.dtd"
   xmlns="http://www.w3.org/2000/svg"
   xmlns:svg="http://www.w3.org/2000/svg">
  <defs
     id="defs1" />
  <sodipodi:namedview
     id="namedview1"
     pagecolor="#ffffff"
     bordercolor="#000000"
     borderopacity="0.25"
     inkscape:showpageshadow="2"
     inkscape:pageopacity="0.0"
     inkscape:pagecheckerboard="0"
     inkscape:deskcolor="#d1d1d1"
     showgrid="false"
     showguides="true"
     inkscape:zoom="0.074982782"
     inkscape:cx="5361.2308"
     inkscape:cy="993.56143"
     inkscape:window-width="1366"
     inkscape:window-height="705"
     inkscape:window-x="-8"
     inkscape:window-y="-8"
     inkscape:window-maximized="1"
     inkscape:current-layer="g1" />
  <g
     inkscape:groupmode="layer"
     inkscape:label="Image"
     id="g1"
     transform="translate(-57.037552,-54.225801)">
    <path
       style="fill:#000000"
       d="m 10224.837,2161.1749 c -50.193,-9.6433 -98.852,-19.0886 -128,-24.8463 -209.2006,-41.3232 -322.8084,-57.9307 -445.4202,-65.1126 l -20.4201,-1.1961 -1.8299,2.2598 c -4.0395,4.9886 -1.1237,9.2791 9.4201,13.8615 2.6125,1.1354 4.75,2.3834 4.75,2.7733 0,1.2776 -23.2462,-0.4805 -35,-2.6471 -6.325,-1.1658 -20.8025,-4.3261 -32.1722,-7.0227 -32.5694,-7.7248 -42.4325,-9.4997 -44.2778,-7.9682 -3.6903,3.0627 -1.292,6.2451 9.45,12.5398 12.5552,7.3573 15.2346,10.4022 11.7202,13.319 -1.5397,1.2778 -77.8961,-9.7667 -202.2202,-29.2499 -36.7637,-5.7613 -141.6601,-22.6176 -236,-37.924 -18.7,-3.034 -54.25,-8.733 -79,-12.6645 -24.75,-3.9315 -45.63,-7.3468 -46.3998,-7.5896 -3.8884,-1.2263 10.4946,-10.2037 20.4675,-12.7753 l 4.9323,-1.2718 -3.1308,-1.6351 c -5.3283,-2.7828 -29.6759,-10.5651 -44.1161,-14.1009 -15.0385,-3.6823 -35.5494,-7.55 -55.7125,-10.5055 -10.8272,-1.587 -13.254,-2.2634 -14.75,-4.1109 -2.2671,-2.7998 -2.282,-4.8791 -0.041,-5.6702 2.1398,-0.7552 6.25,-4.3634 6.25,-5.4867 0,-1.1957 -23.0644,-12.5108 -41.2186,-20.2213 -55.182,-23.437 -121.3701,-41.6955 -215.7814,-59.5248 -26.1974,-4.9473 -48.4817,-8.8417 -134.7367,-23.5465 -41.528,-7.0797 -96.5324,-17.0956 -98.7633,-17.9841 -2.0927,-0.8335 36.9278,-0.5061 57.5,0.4824 11.825,0.5682 38.825,2.3718 60,4.0081 70.213,5.4257 90.3032,6.8418 111.5,7.8591 32.9262,1.5803 62.2219,2.1234 71.5,1.3253 l 8.5,-0.7311 -5.2825,-5.33 c -9.1588,-9.2414 -20.5252,-13.2685 -56.8188,-20.1309 -16.3177,-3.0854 -24.0563,-5.2765 -30.7332,-8.7019 -3.6702,-1.883 -3.4877,-1.8912 35.5727,-1.5937 73.6964,0.5613 110.7161,2.4064 135.7618,6.7666 33.3051,5.7981 52.6254,13.7606 94.5,38.9464 49.6111,29.839 61.7614,35.7884 102.3247,50.1029 37.5135,13.2383 87.204,25.0108 118.1753,27.9976 11.189,1.0791 11.0529,0.9774 11.4193,8.5404 0.5097,10.5235 3.0689,14.9561 12.0015,20.7874 16.2271,10.5931 39.1288,20.9283 61.3774,27.6985 40.5504,12.3394 83.9174,19.1195 175.2018,27.3916 46.5422,4.2176 81.7182,7.8728 93.25,9.6899 5.3452,0.8422 4.8414,-0.7732 -2.5,-8.0157 -4.257,-4.1995 -10.0302,-8.2829 -18.1042,-12.8051 -10.7798,-6.0376 -11.5955,-6.689 -9,-7.1881 13.3683,-2.5705 31.677,-3.676 85.3542,-5.1538 28.875,-0.7949 57.675,-1.9235 64,-2.5078 13.7718,-1.2724 36.1719,-4.8418 37.3212,-5.947 1.0283,-0.9889 -12.2556,-4.5456 -22.648,-6.0639 -4.3048,-0.629 -15.3298,-1.7119 -24.5,-2.4065 l -16.6732,-1.263 7.5672,-3.6028 c 17.6204,-8.3891 35.188,-11.1792 69.9328,-11.1071 26.4176,0.055 38.9105,0.9684 87.5,6.3985 14.3,1.5981 30.2273,3.2208 35.394,3.6059 l 9.3941,0.7003 -2.3941,-3.2506 c -3.3151,-4.5012 -12.9586,-11.5673 -21.894,-16.0424 -4.125,-2.0659 -16.5,-7.0062 -27.5,-10.9784 -18.3095,-6.6117 -36.9119,-15.0666 -34.7413,-15.7902 1.5252,-0.5084 47.2251,7.5467 80.7413,14.2316 50.9377,10.1595 60.8023,12.3307 170.4999,37.5264 116.6486,26.7922 166.9506,37.3172 229.4996,48.0194 21.108,3.6116 69.962,10.9252 73.5,11.0033 3.379,0.074 -1.718,1.843 -10.011,3.4734 -7.026,1.3811 -13.487,1.6119 -37.489,1.3393 -58.298,-0.6621 -66.261,-0.5103 -68.068,1.298 -2.907,2.9083 -0.807,5.5244 9.128,11.3713 6.681,3.932 9.44,6.1134 9.44,7.4639 0,1.0496 -0.46,2.1928 -1.023,2.5404 -0.562,0.3477 -6.975,-0.064 -14.25,-0.9143 -24.469,-2.8608 -36.124,-3.5929 -57.253,-3.5963 -21.665,0 -32.616,0.8641 -45.282,3.5875 -5.922,1.2733 -7.515,2.0248 -8.397,3.9606 -1.518,3.3303 -0.196,4.5839 7.812,7.411 7.849,2.7709 13.393,7.1758 13.393,10.641 v 2.3964 l -14.75,0.1185 c -8.112,0.065 -15.425,0.028 -16.25,-0.084 -8.9596,-1.2069 26.903,11.7624 58,20.975 9.075,2.6885 37.875,10.7425 64,17.8978 46.669,12.7819 76.193,21.5977 95,28.366 6.707,2.4139 10.609,3.2842 13.273,2.9606 4.327,-0.5257 9.727,1.3547 9.727,3.3871 0,1.9522 -9.031,1.6311 -21.5,-0.7645 z m -819.5001,-187.5254 c -110.8145,-4.8271 -224.5124,-61.8099 -330.8683,-165.8237 -40.7835,-39.8853 -85.3413,-93.5416 -88.6598,-106.7637 -1.5206,-6.0584 1.1473,-3.9656 29.5281,23.1637 50.6695,48.4352 54.1034,51.6459 75,70.1243 32.089,28.3757 59.9786,50.3479 87.3745,68.8361 109.8476,74.1306 211.0259,91.3064 311.8755,52.9431 l 10.75,-4.0893 v -20.7997 -20.7997 l 4.25,-0.5029 c 2.3375,-0.2766 8.525,-0.9685 13.75,-1.5376 5.225,-0.5691 16.8731,-2.5078 25.8848,-4.3084 13.7398,-2.7452 16.51,-3.5965 17.1607,-5.2737 0.4268,-1.1 2.1789,-6.6012 3.8935,-12.225 4.1226,-13.521 11.8223,-28.6653 23.555,-46.3291 8.1776,-12.3116 9.5142,-14.8891 9.0465,-17.4459 -0.8117,-4.4373 -4.1165,-7.9416 -12.9904,-13.7745 -4.3724,-2.874 -8.0587,-5.6755 -8.1918,-6.2255 -0.1331,-0.55 6.336,-5.725 14.3757,-11.5 8.0398,-5.775 18.7233,-13.4786 23.7412,-17.1192 19.1737,-13.911 39.4776,-24.916 55.2748,-29.9597 8.1483,-2.6015 8.9187,-3.9904 4.5,-8.1118 -4.1091,-3.8325 -5.6992,-4.4238 -19.7971,-7.362 -13.4164,-2.7961 -18.6367,-4.779 -21.8049,-8.2822 -1.5423,-1.7055 -1.7314,-2.9351 -1.1315,-7.3564 1.2789,-9.4244 4.3234,-15.814 10.3961,-21.8188 6.864,-6.7873 13.8904,-10.5567 32.7387,-17.5628 18.024,-6.6998 26.3487,-10.3956 26.3487,-11.6976 0,-3.2694 -2.8587,-9.4233 -6.0744,-13.0766 -4.2793,-4.8616 -10.2211,-7.9977 -24.6657,-13.0189 -5.632,-1.9578 -11.3762,-4.155 -12.7649,-4.8826 l -2.5249,-1.3229 11.1162,-9.9642 c 26.9447,-24.1526 30.38,-26.8621 42.7535,-33.7201 l 6.2839,-3.4828 -4.6089,-3.9395 c -2.5348,-2.1667 -11.6751,-7.4732 -20.3118,-11.7923 -13.1104,-6.5562 -16.7083,-8.8579 -21.7918,-13.9411 -7.6895,-7.6891 -10.3741,-14.3483 -8.0382,-19.9388 1.9391,-4.641 8.7434,-11.9418 14.0016,-15.0233 2.3109,-1.3543 6.8867,-3.3669 10.1683,-4.4724 5.2392,-1.765 9.0683,-2.5471 23.2071,-4.7404 3.0007,-0.4655 3.25,-0.7924 3.25,-4.2625 0,-8.5198 -6.2077,-16.3715 -25.868,-32.7189 -12.7387,-10.5922 -18.4771,-17.9901 -20.6405,-26.61 -0.552,-2.1991 -0.2507,-2.6658 2.1026,-3.2564 4.7598,-1.1947 15.5272,-8.9778 26.4059,-19.0875 5.775,-5.3667 13.0874,-11.4497 16.2499,-13.5177 l 5.7499,-3.76 -5.5284,-5.0526 c -5.803,-5.3037 -17.6612,-12.4217 -30.7438,-18.4544 -4.2747,-1.9712 -11.3622,-5.7195 -15.75,-8.3295 -6.1301,-3.6465 -7.9776,-5.257 -7.9776,-6.9543 0,-2.9218 5.7465,-11.3431 12.5154,-18.341 7.5109,-7.7649 10.4537,-11.9586 9.767,-13.9186 -1.2185,-3.4774 -5.6591,-8.3652 -13.7073,-15.0874 -8.1405,-6.7993 -13.5751,-14.4612 -13.5751,-19.1386 0,-0.9258 2.1375,-3.4056 4.75,-5.5107 8.2855,-6.6763 20.3222,-18.657 26.5371,-26.4135 l 6.0093,-7.5 -6.3982,-1.1623 c -3.519,-0.6392 -16.7482,-2.3464 -29.3982,-3.7937 -12.65,-1.4473 -27.05,-3.5638 -32,-4.7033 -25.4627,-5.8617 -37.9861,-18.0551 -39.2435,-38.2097 l -0.5298,-8.4929 5.6759,-5.9507 c 9.9131,-10.3928 24.6819,-16.1874 41.2573,-16.1874 5.3363,0 8.3401,-0.3913 8.3401,-1.0865 0,-2.024 -12.4305,-14.046 -19.1246,-18.4963 -3.6607,-2.4336 -11.1698,-6.5877 -16.6868,-9.2314 l -10.031,-4.8065 3.0171,-5.9397 c 3.0559,-6.0158 10.2044,-15.7807 24.8456,-33.9396 7.2685,-9.0148 14.3041,-19.5089 13.5709,-20.2421 -0.1554,-0.1554 -6.9895,1.0544 -15.1869,2.6883 -40.8224,8.1367 -67.9938,8.1386 -84.9043,0.01 -10.0018,-4.8101 -11.4471,-6.447 -12.5406,-14.2039 -2.1608,-15.3281 3.6298,-33.3241 14.0388,-43.62953 3.5494,-3.51416 11.458,-9.29919 14.3436,-10.49224 1.6936,-0.70022 -3.1933,-4.34689 -6.789,-5.06603 -1.6564,-0.33127 -10.1746,-0.29608 -18.9294,0.0782 l -15.9179,0.68052 0.6977,-6.40965 c 1.1891,-10.92372 4.3378,-22.36819 10.5081,-38.19342 3.2631,-8.36893 6.2603,-16.52772 6.6604,-18.13066 0.6453,-2.58455 0.5126,-2.8309 -1.1721,-2.17646 -1.0448,0.40587 -6.9869,2.0534 -13.2046,3.66118 -33.0359,8.54233 -65.7526,7.67271 -85.9804,-2.2854 -12.2098,-6.01086 -21.8539,-18.42295 -23.8076,-30.64076 -0.6351,-3.97187 -0.609,-4.01264 3.2263,-5.04368 2.1267,-0.57169 10.73,-2.38126 19.1184,-4.02126 8.3885,-1.64 15.9826,-3.39078 16.8758,-3.89062 2.8674,-1.60468 -40.8815,-23.18857 -47.0015,-23.18857 -4.5064,0 -0.2475,-10.73602 8.3636,-21.08331 2.7591,-3.31536 5.7324,-7.41229 6.6074,-9.10429 l 1.5908,-3.07637 -2.5967,0.65175 c -1.4283,0.35846 -11.033,3.96292 -21.344,8.00992 -36.0988,14.16864 -52.9874,18.06764 -68.4795,15.80964 -7.7231,-1.12565 -17.6519,-4.98388 -22.1549,-8.60914 -3.9231,-3.15842 0.7732,-15.15641 8.619,-22.01974 5.7123,-4.99697 12.9565,-8.7808 26.1704,-13.6695 9.6821,-3.58206 9.8488,-3.69704 7.5,-5.17476 -5.6019,-3.52439 -9.6329,-3.94685 -34.2299,-3.58742 l -24.1722,0.35322 0.055,-12.58738 c 0.049,-11.04362 0.3203,-13.03658 2.2163,-16.25 2.0265,-3.43473 2.0468,-3.66262 0.3257,-3.66262 -3.7878,0 -19.422,3.106 -35.1611,6.98534 -23.0312,5.67668 -33.0383,7.30653 -36.5841,5.95842 -6.1235,-2.32816 -8.4582,-6.06458 -11.9558,-19.1341 -2.9504,-11.02464 -5.8093,-16.80966 -8.3071,-16.80966 -2.8759,0 -20.009,4.56594 -36.0891,9.61775 -92.226,28.97402 -166.3331,82.39501 -219.0187,157.88225 -19.7371,28.279 -42.4254,70.61956 -53.4632,99.77229 -0.9938,2.62479 -1.9884,4.59079 -2.2102,4.36899 -0.2219,-0.2219 2.3055,-7.87824 5.6164,-17.01419 24.4197,-67.38365 55.5438,-125.57503 90.7263,-169.62709 10.7814,-13.4993 38.0971,-41.80011 50.3494,-52.16508 69.7907,-59.04035 157.0063,-86.28882 259.2546,-80.99808 72.1885,3.73533 132.2906,19.33467 197.6009,51.2868 105.3727,51.5521 206.0058,144.25079 272.8926,251.37636 82.1709,131.60458 118.0856,291.37028 107.2266,476.99998 -7.0115,119.8521 -41.9395,229.8903 -100.9391,318 -22.9176,34.225 -53.5212,69.1725 -82.5356,94.2507 -68.7837,59.4522 -151.5404,93.3185 -240,98.2147 -9.9,0.5479 -19.575,0.9182 -21.5,0.8228 -1.925,-0.095 -6.425,-0.3009 -10,-0.4567 z m -308.5,-67.7549 c -102.5006,-28.5655 -172.0173,-57.7691 -230.2662,-96.7338 -61.4535,-41.1081 -109.6082,-95.8455 -140.6205,-159.8428 -4.3128,-8.8999 -10.952,-25.2936 -15.5919,-38.5 -14.7452,-41.9683 -20.0675,-54.2792 -29.7867,-68.8989 -9.2668,-13.9394 -25.6602,-27.7319 -39.481,-33.2173 -2.6104,-1.0361 -4.7479,-2.1355 -4.75,-2.4433 -0.01,-1.2429 15.6421,1.2269 22.6218,3.5699 25.1621,8.4466 39.5239,21.3642 73.3673,65.9896 28.8384,38.0259 42.3343,51.2521 62.6202,61.3691 11.7807,5.8753 22.442,8.3695 36.387,8.5128 l 11.5,0.1181 1.8816,-7 c 1.3781,-5.1266 1.9133,-10.7468 2,-21 0.1047,-12.3832 -0.1602,-14.8084 -2.2939,-21 -6.9872,-20.2755 -17.9138,-31.793 -51.5877,-54.3775 -32.855,-22.0352 -72.519,-51.4165 -94.5,-70.0014 -52.1251,-44.0716 -83.0674,-90.9779 -101.6679,-154.1211 -1.8632,-6.325 -7.2117,-28.725 -11.8857,-49.7778 -15.4643,-69.6561 -24.1915,-93.7313 -42.0839,-116.094 -23.4209,-29.2725 -59.2519,-38.6395 -109.2463,-28.5593 -6.8111,1.3733 -12.5385,2.3422 -12.7276,2.1531 -0.6263,-0.6262 16.0172,-12.483 24.6353,-17.5501 28.5841,-16.8062 57.4817,-20.9914 89.8763,-13.0167 23.9996,5.9081 39.96,16.4049 74.346,48.8956 22.137,20.9168 30.8965,27.8034 43.2444,33.9982 12.6892,6.366 21.6033,8.3364 34.5094,7.6281 17.4256,-0.9564 28.1139,-6.1893 37.2462,-18.2355 5.5474,-7.3176 7.2224,-13.1385 7.1772,-24.9416 -0.03,-7.8952 -0.5036,-11.1798 -2.2486,-15.6052 -10.9671,-27.8134 -45.6484,-46.9986 -116.1748,-64.2663 -12.375,-3.0299 -31.725,-7.7667 -43,-10.5262 -36.7212,-8.9874 -92.8273,-29.3229 -128.9678,-46.7442 -40.9355,-19.73251 -64.1005,-35.29633 -85.5631,-57.48694 -21.0224,-21.73545 -33.5645,-40.33384 -60.0949,-89.11393 -6.957,-12.79146 -15.3275,-27.69628 -18.6012,-33.12182 -23.8344,-39.5018 -48.1069,-61.14269 -81.273,-72.46164 -10.4376,-3.56213 -26.3495,-6.86639 -38.5,-7.9949 l -8.5,-0.78946 7,-2.15405 c 15.8649,-4.88198 37.2907,-6.59398 52.5,-4.19495 15.8197,2.49533 35.2721,11.23534 50.5,22.68978 11.5539,8.6909 27.503,24.08055 43.2884,41.76984 6.8713,7.7 14.0976,15.8 16.0585,18 29.9092,33.55566 49.5625,49.82221 71.1531,58.89155 17.6973,7.43397 35.0162,9.97379 52.5,7.69917 31.2472,-4.06523 48.1303,-16.19323 55.1132,-39.59072 2.8598,-9.58225 2.4414,-27.2202 -0.9642,-40.64038 -4.2138,-16.60561 -9.7812,-29.17678 -19.2961,-43.5704 -11.3163,-17.11873 -27.1061,-29.686 -53.659,-42.70772 -32.6093,-15.99186 -62.2511,-25.41372 -146.3951,-46.53271 -84.553,-21.22167 -122.5474,-34.18618 -163.7988,-55.89181 -38.9136,-20.47545 -69.0954,-46.48034 -90.7107,-78.15698 -17.1065,-25.06902 -25.9125,-44.98416 -45.7523,-103.47049 -17.2561,-50.8701 -23.8789,-66.27952 -37.2084,-86.57478 -7.1706,-10.91782 -24.1174,-28.5061 -33.5605,-34.83071 -14.6711,-9.82619 -34.1824,-17.62249 -52.7681,-21.08496 -11.423,-2.12808 -11.5601,-2.25122 -4,-3.59322 31.4573,-5.58407 62.2836,-0.23842 89.9684,15.60163 12.508,7.15651 24.4246,16.68524 38.1067,30.47076 16.8293,16.95663 28.8837,32.08517 57.2937,71.9052 30.4706,42.70814 38.1566,52.51552 53.6312,68.43408 22.0653,22.69841 41.3983,35.18784 62.9197,40.64719 23.1123,5.86293 52.6376,3.33238 67.5803,-5.79216 9.7195,-5.93513 17.7,-16.16007 21.6293,-27.71254 2.629,-7.72965 2.6358,-32.86261 0.012,-45 -7.5522,-34.93643 -31.4975,-80.56998 -55.0074,-104.82973 -20.5925,-21.24917 -51.5839,-40.68433 -87.8051,-55.06386 -25.5359,-10.13756 -65.0366,-22.15501 -108.829,-33.10947 -78.3694,-19.60372 -114.3722,-31.24226 -148.5,-48.00526 -41.8815,-20.57141 -69.1886,-45.28708 -86.5397,-78.32686 -5.3857,-10.2554 -10.9603,-23.321206 -10.9603,-25.688792 0,-0.538068 4.603,2.660625 10.229,7.108212 46.4375,36.71112 111.1872,60.497 231.0531,84.87758 87.8904,17.87678 104.079,21.35886 133.2179,28.65437 95.3944,23.88397 156.2245,53.37242 197.0384,95.51786 20.1234,20.77988 31.0719,37.48419 63.4545,96.81309 10.0407,18.39592 21.1996,38.42092 24.7975,44.5 32.9304,55.64002 63.4944,84.17927 101.0037,94.31253 8.7717,2.3697 11.4864,2.62775 28.2059,2.68119 16.6969,0.0534 19.2309,-0.16911 26,-2.28273 25.2744,-7.8919 40.1913,-24.11081 45.4093,-49.37304 4.63,-22.41515 -1.6777,-53.63232 -15.6162,-77.28509 -17.1283,-29.06577 -42.6923,-48.04004 -95.2931,-70.72899 -22.4243,-9.67251 -33.7473,-13.92404 -70,-26.28327 -52.1103,-17.76538 -67.0776,-23.84328 -87.496,-35.53038 -43.6928,-25.00881 -66.233,-60.3329 -69.5431,-108.98493 l -0.6444,-9.47243 5.545,9.86995 c 17.1812,30.58219 43.0249,53.07543 82.7301,72.0047 34.5294,16.4618 68.0847,26.60837 160.9084,48.65613 61.2919,14.55826 97.1582,26.13568 128.5,41.47905 50.1845,24.56784 77.2322,53.7638 93.4165,100.83589 5.2184,15.17763 9.6367,33.30228 16.5179,67.75833 8.6017,43.07103 14.1499,62.98608 23.0942,82.89595 8.9002,19.8115 16.6707,31.24513 30.9463,45.535 8.27,8.2782 11.9508,11.11071 21.0251,16.17951 21.2852,11.88977 49.3465,22.70993 71.8516,27.7053 49.2672,10.93563 78.9667,0.33046 87.1593,-31.12301 6.2489,-23.99129 -5.6983,-48.9503 -36.1474,-75.51562 -19.0837,-16.6496 -36.97,-29.19497 -83.8635,-58.82141 -40.4487,-25.55469 -58.0207,-38.15238 -66.8516,-47.92712 -5.653,-6.25724 -15.2524,-21.30027 -20.3123,-31.83125 -5.1892,-10.79978 -11.0411,-28.08605 -15.1946,-44.88398 -4.6784,-18.92075 -4.6764,-18.49746 -0.051,-10.81742 30.4406,50.54541 83.4325,84.51449 167.6262,107.45227 34.8339,9.49017 68.2258,16.08085 150.2356,29.65253 80.8488,13.37953 112.1366,19.47207 146.5479,28.53659 73.8156,19.44433 135.9523,49.38055 209,100.69208 14.9997,10.53637 80.5,59.06387 80.5,59.6404 0,0.16797 -10.6875,-2.81296 -23.75,-6.62429 -77.2804,-22.5486 -89.3238,-25.84262 -117.8649,-32.23751 -14.9162,-3.34212 -44.4835,-8.18062 -62.8851,-10.29077 -21.3805,-2.45174 -75.9398,-2.46299 -97.3409,-0.0201 -103.5528,11.82048 -191.1974,53.80749 -265.737,127.30396 -86.7272,85.51364 -147.4479,209.27133 -170.4174,347.33611 -14.5409,87.402 -9.2591,178.4657 15.5946,268.8661 34.7862,126.5281 106.5899,253.3365 219.7889,388.1566 13.1344,15.643 14.7447,17.5252 22.1858,25.9329 43.8084,49.4983 62.6603,69.5602 69.3159,73.7649 7.5941,4.7975 12.889,10.0554 13.6596,13.5639 0.7088,3.2273 -1.1633,8.8101 -2.9209,8.7102 -0.6207,-0.035 -9.6786,-2.447 -20.1286,-5.3593 z m 261.75,-37.2388 c -2.3881,-0.9636 -1.2214,-3.2428 3.848,-7.5174 2.8039,-2.3643 5.7352,-5.5309 6.514,-7.037 1.7336,-3.3525 2.2529,-3.2033 -16.612,-4.7748 -60.7427,-5.06 -125.2096,-27.1882 -166,-56.9792 -3.575,-2.611 -10.4877,-6.9482 -15.3615,-9.6383 -14.2165,-7.8468 -19.7991,-13.8455 -18.2607,-19.6217 1.4023,-5.2647 1.7005,-5.2817 13.2561,-0.7575 22.8275,8.9373 49.9221,15.8621 76.8661,19.6452 25.5867,3.5927 65.6892,2.1064 85.5,-3.1688 3.025,-0.8055 6.3178,-1.4699 7.3173,-1.4764 2.0482,-0.013 1.8059,1.4513 -1.4365,8.6833 -1.0345,2.3073 -1.8808,5.3603 -1.8808,6.7844 0,2.5341 0.1118,2.5764 5.25,1.9816 53.5646,-6.201 87.9109,-31.7559 114.6443,-85.2996 8.1568,-16.3371 14.86,-34.0362 28.6552,-75.6616 7.291,-22 14.8751,-44.62 16.8535,-50.2667 1.9783,-5.6467 3.597,-11.6092 3.597,-13.25 0,-3.7996 1.4559,-3.7833 4.6836,0.053 3.0412,3.6142 7.268,5.964 10.728,5.964 2.1518,0 2.7254,-0.7223 4.0109,-5.0512 4.2394,-14.2755 8.0578,-35.4903 10.79,-59.9488 1.7356,-15.5366 1.7306,-85.7088 -0.01,-104.5 -3.816,-41.2575 -8.137,-68.5438 -17.0876,-107.9045 -1.0776,-4.7387 -3.2463,-5.3713 -9.3235,-2.7198 -8.646,3.7722 -8.4321,3.7966 -9.1957,-1.0458 -1.4334,-9.0894 -8.9414,-36.9981 -14.1637,-52.6494 -39.4967,-118.3718 -122.8776,-219.8206 -221.1005,-269.01101 -39.9216,-19.99288 -79.7836,-31.1075 -122.7518,-34.22658 -36.0341,-2.61573 -72.076,3.95425 -102.0823,18.60829 -50.6765,24.74863 -93.2123,76.5929 -126.1227,153.7234 -6.8855,16.1372 -7.332,15.8878 -6.7852,-3.7901 0.8052,-28.9785 8.2075,-56.1043 23.8733,-87.4845 9.342,-18.7131 17.3704,-32.22378 35.8338,-60.30333 9.8615,-14.9976 14.6563,-23.14112 14.0073,-23.79008 -1.4205,-1.42054 -9.6813,0.62949 -15.6924,3.89432 -8.5384,4.63745 -21.4122,17.68163 -30.8263,31.23428 -4.4797,6.44907 6.5092,-20.85612 15.5084,-38.53516 29.8646,-58.66931 75.4538,-91.84019 136.6775,-99.44715 12.294,-1.5275 38.4444,-1.28854 54.0263,0.49369 119.2426,13.63884 234.1264,85.59992 321.708,201.51193 76.7845,101.6223 124.8505,230.2762 135.2239,361.9415 4.5739,58.056 3.5762,130.3581 -2.4841,180 -12.5841,103.0821 -42.478,178.0405 -90.5714,227.1065 -14.03,14.3137 -20.57,19.8351 -34.5864,29.1998 -25.6142,17.1134 -53.2919,27.9377 -86.1696,33.6995 -10.9764,1.9236 -18.2533,2.388 -20.8704,1.332 z M 9244.575,1734.1954 c -13.4685,-1.1082 -28.8354,-4.2942 -38.1422,-7.908 -8.2767,-3.2139 -17.742,-9.2494 -18.5303,-11.8158 -1.2508,-4.0724 -3.5577,-21.3267 -4.6333,-34.6549 -1.5411,-19.0962 -0.6597,-71.774 1.4627,-87.421 7.7083,-56.8293 24.0412,-82.6367 48.0759,-75.9641 5.8928,1.636 16.9059,13.1806 23.2635,24.3864 6.8572,12.0864 11.4411,22.7585 21.261,49.5 4.5444,12.375 12.0928,31.95 16.7742,43.5 16.6715,41.1313 20.5853,56.1676 20.6286,79.2518 0.021,11.2107 -0.2853,14.5584 -1.4357,15.6889 -1.9129,1.8798 -16.0829,4.2589 -32.9625,5.5344 -15.104,1.1413 -20.896,1.1255 -35.7619,-0.098 z m 153.7619,-55.9783 c -20.5653,-11.1677 -34.8435,-26.6992 -53.2265,-57.8991 -29.9811,-50.8841 -44.4123,-80.8199 -51.3647,-106.5501 -2.1927,-8.1149 -2.7088,-12.2551 -2.7987,-22.4499 -0.098,-11.1698 0.1437,-13.0617 2.2757,-17.7794 6.2736,-13.8826 21.3115,-20.1747 41.2548,-17.2616 32.0363,4.6795 84.7751,35.0037 113.4426,65.2281 13.3877,14.1147 16.2927,20.3005 17.1568,36.5327 1.4347,26.9495 -7.7545,49.4375 -37.7414,92.3617 -4.8342,6.9198 -11.3944,16.9323 -14.5782,22.25 -3.1839,5.3177 -6.0435,9.6622 -6.3547,9.6545 -0.3111,-0.01 -3.9407,-1.8468 -8.0657,-4.0869 z m -286.1893,-41.2674 c -28.5494,-12.5139 -45.9611,-31.9701 -70.8164,-79.1317 -3.4783,-6.6 -9.645,-17.9707 -13.7037,-25.2682 l -7.3795,-13.2683 4.5832,-5.9561 c 6.1485,-7.9905 18.2277,-19.8498 28.0057,-27.4959 39.7871,-31.1126 78.1463,-38.9905 98.7234,-20.2752 l 3.5884,3.2637 -0.8707,13.3841 c -1.702,26.1611 -4.9588,53.332 -9.0636,75.6159 -5.6057,30.4314 -20.4841,81.6832 -23.8775,82.251 -0.825,0.1381 -4.9602,-1.2656 -9.1893,-3.1193 z m -98.511,-28.8817 c -6.3499,-6.1875 -15.2806,-15.777 -19.846,-21.31 -8.6921,-10.5345 -25.8216,-34.476 -30.9537,-43.2635 -4.3932,-7.5222 -6.8693,-6.6499 -8.2526,2.907 l -0.7839,5.4165 -7.36,-9.5 c -9.9071,-12.7876 -15.6099,-21.3873 -22.878,-34.5 -20.3148,-36.6502 -36.4277,-89.8263 -45.1484,-149 -1.1348,-7.7 -2.3174,-15.4922 -2.6279,-17.316 -0.5276,-3.0981 -0.4296,-3.2438 1.4898,-2.2166 2.9293,1.5677 6.0138,8.1703 6.9249,14.8232 l 0.782,5.7094 0.8092,-7.9067 c 0.4451,-4.3487 0.5254,-15.8237 0.1786,-25.5 -0.8459,-23.5986 -1.6032,-84.3636 -1.0044,-80.5933 10.5347,66.3318 17.3663,98.8597 29.91,142.4134 23.8168,82.6957 58.8107,157.3401 101.9181,217.3986 3.8734,5.3965 7.6599,10.684 8.4145,11.75 3.0585,4.3204 -0.6181,1.362 -11.5722,-9.312 z m 205.7003,-138.4161 c -1.375,-0.2166 -3.6245,-0.642 -4.9988,-0.9453 -2.4303,-0.5364 -2.4451,-0.5908 -0.5384,-1.9851 1.0783,-0.7884 7.0977,-4.2222 13.3765,-7.6305 18.9619,-10.2932 24.8002,-17.413 25.9419,-31.6359 l 0.5108,-6.3637 -2.396,1.2383 c -1.3178,0.681 -3.3468,2.1024 -4.5087,3.1586 l -2.1127,1.9203 -0.5865,-27.7953 c -0.3226,-15.2874 -1.0712,-31.3953 -1.6637,-35.7953 -3.2479,-24.1221 -10.919,-40.8376 -21.619,-47.1082 -2.423,-1.42 -4.4054,-2.9732 -4.4054,-3.4516 0,-1.8287 4.1333,-2.9402 10.9342,-2.9402 8.3797,0 8.4821,-0.2413 3.9363,-9.2785 -6.456,-12.8345 -23.7191,-26.0567 -39.4746,-30.2341 -7.9409,-2.1055 -20.5974,-2.0899 -26.8249,0.033 -9.5205,3.2457 -15.293,8.1453 -20.602,17.487 l -3.1215,5.4925 0.5608,-8 c 1.6069,-22.9244 12.5431,-36.2866 34.316,-41.9285 15.4706,-4.0089 32.7076,0.672 48.3354,13.1258 29.8289,23.7709 54.2065,70.9223 61.4216,118.8027 1.7291,11.475 1.9814,34.0555 0.4835,43.2857 -2.5718,15.8484 -8.8303,29.031 -18.0495,38.0188 -5.3476,5.2133 -16.2864,10.6582 -24.349,12.1198 -5.6522,1.0247 -19.2245,1.251 -24.5663,0.4096 z m 209,-11.8538 c -52.8653,-6.5603 -96.743,-30.6497 -110.4797,-60.6547 -8.529,-18.6296 -3.9919,-40.6696 11.3159,-54.9696 16.1925,-15.1264 34.6912,-22.2622 89.9841,-34.7113 l 30.3204,-6.8265 2.3343,3.091 c 10.9399,14.4863 19.0941,37.5314 23.2085,65.591 2.2411,15.2838 2.3,48.8239 0.108,61.5 -2.1171,12.243 -5.7291,25.2947 -7.4866,27.0522 -1.8598,1.8598 -24.0656,1.8191 -39.3049,-0.072 z m -443.0374,-28.2751 c -17.0817,-17.5653 -28.1646,-56.0867 -28.2542,-98.205 -0.051,-23.88 2.3709,-38.8119 8.4569,-52.1439 l 3.033,-6.644 8.1508,2.9786 c 4.483,1.6382 18.7259,6.0536 31.6509,9.8121 31.7378,9.2289 43.4645,13.266 56.7052,19.5217 21.5107,10.1628 33.2437,20.3459 40.299,34.9755 5.8578,12.1465 7.3102,23.9272 4.9079,39.8085 -1.4718,9.7302 -3.8559,13.2433 -14.3476,21.1421 -12.4077,9.3412 -31.2788,16.5349 -64.3857,24.5442 -11.3734,2.7514 -24.8351,6.1282 -29.9149,7.5039 -5.0799,1.3757 -9.5578,2.5013 -9.951,2.5013 -0.3931,0 -3.2508,-2.6077 -6.3503,-5.795 z m 172.7339,-15.1562 c -11.0622,-13.6871 -18.1607,-35.4733 -20.5012,-62.9205 l -0.7991,-9.3718 6.0519,0.63 c 8.1852,0.852 15.9752,4.7851 19.2357,9.712 1.4201,2.1459 3.3437,3.9015 4.2747,3.9015 3.1539,0 6.1513,-4.6299 8.1861,-12.6443 2.7212,-10.7184 3.3004,-11.1773 9.8916,-7.8373 10.8699,5.5082 18.9086,15.4734 22.4891,27.8785 2.6996,9.3534 1.7445,28.4381 -1.9926,39.8173 -2.5058,7.6297 -3.2647,8.9053 -6.0985,10.25 -4.6512,2.2072 -10.4254,1.8984 -18.0305,-0.9642 -3.653,-1.375 -7.6435,-2.5 -8.8678,-2.5 -2.6282,0 -4.9097,2.362 -6.218,6.4375 -0.5186,1.6157 -1.3648,3.0764 -1.8804,3.246 -0.5157,0.1697 -3.0991,-2.366 -5.741,-5.6347 z m 130.3035,-137.5876 c -8.6879,-2.4284 -14.1188,-5.4761 -19.4048,-10.8894 -11.1258,-11.3937 -12.8557,-23.6234 -6.3114,-44.6173 17.4117,-55.8562 47.5562,-113.7439 64.3587,-123.5909 3.9543,-2.3174 5.2584,-2.5674 11.1673,-2.1416 8.9762,0.647 15.8049,4.2384 25.0406,13.1698 17.4985,16.9218 34.6266,50.2484 50.3091,97.8877 3.7622,11.4287 6.8405,21.6312 6.8405,22.6721 0,6.2643 -37.1719,28.8559 -63.5,38.5927 -19.1419,7.0792 -31.2689,9.6209 -48,10.0603 -11.4205,0.3 -16.3125,0.027 -20.5,-1.1434 z m -200.5,-19.0914 c -27.0319,-3.2884 -48.2438,-9.7277 -74,-22.4641 -20.552,-10.1629 -44.2003,-25.6312 -59.9542,-39.2159 l -3.9541,-3.4096 2.233,-15.9097 c 5.2186,-37.182 14.4799,-65.5328 28.4745,-87.1663 4.7154,-7.2891 15.4417,-19.2469 21.7382,-24.2338 l 3.7064,-2.9355 6.3539,4.1067 c 17.2866,11.1729 31.8018,29.7092 55.0956,70.3584 6.3034,11 14.9713,25.625 19.262,32.5 20.8422,33.3959 27.349,50.5676 26.2903,69.3806 -0.3,5.331 -1.3004,11.1965 -2.4082,14.1194 l -1.8951,5 -8.9712,0.1174 c -4.9341,0.064 -10.3211,-0.047 -11.9711,-0.2476 z m 82.4954,-51.7203 c -14.3202,-3.8645 -29.6761,-22.9139 -42.0381,-52.1495 -11.8584,-28.0447 -22.3774,-68.9948 -27.6137,-107.5 -1.7063,-12.5471 -2.5731,-52.09213 -1.1727,-53.50044 3.4369,-3.45636 57.6435,-5.32625 76.8291,-2.65026 39.8969,5.5648 75.454,19.579 91.4045,36.0257 l 3.9046,4.026 -1.7366,10.7995 c -9.6749,60.1644 -24.337,106.854 -42.3315,134.7995 -5.6304,8.744 -19.1027,22.1769 -25.8159,25.7404 -10.0631,5.3417 -21.8477,6.9949 -31.4297,4.4091 z"
       id="path2" />
    <text
       xml:space="preserve"
       style="font-style:normal;font-variant:normal;font-weight:normal;font-stretch:normal;font-size:1000px;font-family:'Stretch Pro';-inkscape-font-specification:'Stretch Pro';letter-spacing:-0.4px;fill:#000000;fill-opacity:1;stroke:#1be311;stroke-width:0"
       x="23.037552"
       y="1363.7146"
       id="text2"><tspan
         sodipodi:role="line"
         id="tspan2"
         x="23.037552"
         y="1363.7146">SuperCars</tspan></text>
  </g>
</svg>
